<svg xmlns="http://www.w3.org/2000/svg" width="64" height="64" xmlns:v="https://vecta.io/nano"><g fill="#ace3ff"><path d="M7 17L32 3l26 14-26 14z"/><path d="M6 17v30l26 15V31z"/></g><path fill="#7bbeeb" d="M17 23l15-8 15 8-15 8z"/><path fill="#ace3ff" d="M32 62l27-15V17L32 31z"/><g fill="#7bbeeb"><path d="M17 23v18l15 8V31z"/><path d="M32 49l15-8V23l-15 8z"/></g><path fill="#e3f2ff" d="M17 41L6 47V17l11 6z"/><g fill="#8d6c9f"><path d="M32 32c-.162 0-.324-.04-.47-.117l-15-8C16.204 23.71 16 23.37 16 23s.204-.71.53-.883l15-8c.294-.156.647-.156.94 0l15 8A1 1 0 0 1 48 23c0 .37-.204.71-.53.883l-15 8c-.147.078-.31.117-.47.117zm-12.875-9L32 29.866 44.875 23 32 16.134 19.125 23z"/><path d="M17 27a1 1 0 0 1-1-1v-2.406L5.52 17.878a1 1 0 0 1-.52-.881c.001-.366.203-.703.526-.878l26-14a1 1 0 0 1 .948 1.761L8.1 17.006l9.38 5.116A1 1 0 0 1 18 23v3a1 1 0 0 1-1 1zm0 8a1 1 0 0 1-1-1v-4a1 1 0 1 1 2 0v4a1 1 0 0 1-1 1zm15 15a1.01 1.01 0 0 1-.471-.117l-15-8A1 1 0 0 1 16 41v-3a1 1 0 1 1 2 0v2.4l13 6.933V31a1 1 0 1 1 2 0v18c0 .352-.184.677-.485.857-.16.095-.337.143-.515.143z"/></g><path fill="#85cbf8" d="M59 47L32 61V49l15-8z"/><g fill="#8d6c9f"><path d="M32 63a1 1 0 0 1-1-1V49a1 1 0 1 1 2 0v11.3l25.514-14.175a1 1 0 1 1 .972 1.748l-27 15c-.152.084-.32.126-.486.126zm15-21a1 1 0 0 1-1-1V23a1 1 0 0 1 .553-.895l10.244-5.122L33 4.645V15a1 1 0 1 1-2 0V3a1 1 0 0 1 1.46-.887l27 14a1 1 0 0 1-.013 1.783L48 23.618V41a1 1 0 0 1-1 1zm-2.86 2.66a1 1 0 0 1-.883-.529l-.94-1.765a1 1 0 0 1 1.764-.942l.94 1.765a1 1 0 0 1-.881 1.471zm-4.168 2.223a1 1 0 0 1-.884-.53l-.94-1.766a1 1 0 1 1 1.766-.942l.94 1.766a1 1 0 0 1-.412 1.354 1.01 1.01 0 0 1-.47.117z"/><path d="M35.805 49.104a1 1 0 0 1-.883-.529L33.98 46.8a1 1 0 1 1 1.765-.942l.94 1.765a1 1 0 0 1-.881 1.471zM59 48c-.153 0-.306-.035-.447-.105l-12-6a1 1 0 0 1-.447-1.342c.247-.493.847-.692 1.342-.447L58 45.382V17a1 1 0 1 1 2 0v30a1 1 0 0 1-.474.85A.99.99 0 0 1 59 48zM6 48c-.177 0-.354-.047-.5-.14A1 1 0 0 1 5 47V17a1 1 0 1 1 2 0v28.315l9.52-5.193a1 1 0 0 1 1.357.399 1 1 0 0 1-.399 1.356l-11 6C6.33 47.96 6.165 48 6 48z"/><path d="M32 63c-.17 0-.34-.043-.5-.134l-26-15a1 1 0 1 1 1-1.732l26 15a1 1 0 0 1 .367 1.366c-.186.32-.522.5-.868.5z"/></g></svg>