<svg xmlns="http://www.w3.org/2000/svg" width="64" height="64" xmlns:v="https://vecta.io/nano"><path fill="#ed7899" d="M38.25,3C55,4,59,5,57,19S35.902,54.35,14,58c0,0-14.972,3-9.986-27L38.25,3z"/><path fill="#f98cb3" d="M3 31v14l5.922-8.28zm5.922 6.06L14 57l8.312-22.688zM23 34l19 8-6-20zM33 4l7 5 6-6H33zm4 18l3-13 18 6z"/><path fill="#ed7899" d="M41.638 43.9C42.855 42.53 56.046 27.677 57 21l-1 35-33 1 18.437-12.932c.075-.052.14-.1.2-.178z"/><path fill="#e0678f" d="M43 43L55.5 55.5 21 58z"/><path fill="#ed7899" d="M4.54 28.096l4.347-7.608a3.95 3.95 0 0 1 .645-.844l9.985-9.985c.304-.304.655-.557 1.04-.75l9.38-4.7a4 4 0 0 1 4.008.249l4.067 2.71a4 4 0 0 1 1.576 4.593l-3.15 9.447a4.01 4.01 0 0 1-1.137 1.725L23.06 33.828c-.51.452-1.125.767-1.8.915l-10.003 2.223a4 4 0 0 1-3.991-1.406L4.89 32.58a4 4 0 0 1-.35-4.484z"/><path d="M38.192 25.812a1 1 0 1 0-1.919.563l.744 2.54a1 1 0 0 0 .959.719 1.02 1.02 0 0 0 .282-.04 1 1 0 0 0 .678-1.241l-.744-2.54zm20.623-13.845L58.65 10.9a11.75 11.75 0 0 0-.93-2.83c-.5-1.04-1.15-1.98-1.96-2.8-2.13-2.13-5.1-3.2-8.86-3.2H33.74c-1.13 0-2.25.28-3.25.8l-1 .47-9.38 4.7c-.48.24-.92.55-1.3.93l-9.98 10a4.83 4.83 0 0 0-.81 1.05l-5 8.82c-.65 1.1-1 2.33-1 3.6l.068 13.503c-.048.832-.05 1.64.012 2.417l.13 1.22a13.19 13.19 0 0 0 .83 2.98l.4.82c.47.9 1.06 1.72 1.78 2.44a10.02 10.02 0 0 0 .83.742c.17.135.35.252.528.376l.375.266c.257.163.528.307.802.448l.174.096c.32.157.653.297.995.425l.054.023c1.45.535 3.098.8 4.93.827h0c.01.001.016.005.025.005.016.002.03.002.046.002.047-.003.072 0 .1 0l1.1-.04a22.26 22.26 0 0 0 1.39-.11l38.9-1.94a1.99 1.99 0 0 0 1.9-1.92l1.5-38.7c.01-.07.08-1.97.08-2.14a16.53 16.53 0 0 0-.155-2.183zM43.67 4.06l-.3.33-3.3 3.543c-.37-.616-.865-1.165-1.5-1.583l-.66-.44-2.02-1.34h-.01l-.76-.5h8.55zM5.18 29.1c.05-.18.13-.35.23-.52l4.35-7.6a2.92 2.92 0 0 1 .48-.63l9.98-9.98c.23-.23.5-.42.78-.57l9.38-4.7c.15-.07.3-.13.46-.18a2.98 2.98 0 0 1 .88-.13 3 3 0 0 1 1.67.5l.36.24 1.93 1.3L37.46 8c1.12.75 1.6 2.17 1.18 3.45L35.5 20.9a3.07 3.07 0 0 1-.85 1.3L22.4 33.08c-.38.34-.84.58-1.34.7l-10 2.22a2.99 2.99 0 0 1-2.99-1.05l-.58-.73-1.33-1.66-.01-.01-.47-.6c-.44-.54-.66-1.2-.66-1.87 0-.33.05-.65.17-.97zm5.087 27.362l-.252-.075-.514-.2-.352-.144-.425-.202a8.7 8.7 0 0 1-.393-.213 8.58 8.58 0 0 1-.347-.207l-.44-.306-.255-.187a7.83 7.83 0 0 1-.64-.567C4.57 52.3 3.73 49.2 4 45.55l3.53-5.3c.3-.46.2-1.08-.27-1.38a1 1 0 0 0-1.39.27l-.92 1.37v.02l-.92 1.37v-8.8c.02.04.05.07.08.1l1.07 1.33 1.3 1.65c.01.02.03.04.04.05a5.02 5.02 0 0 0 1.46 1.209c-.003.1 4.72 19.494 4.72 19.494a12.13 12.13 0 0 1-2.442-.461zm5.983.398l-.16.01-.244.023-.187.015c-.08.008-.156.012-.235.02l4.04-11.74a1 1 0 1 0-1.892-.65l-3.4 9.9-4.02-16.4c.08.004.157.013.237.013a5.08 5.08 0 0 0 1.1-.12l10-2.22a5.29 5.29 0 0 0 .64-.192l19.355 7.186c.048.018.1.016.148.027C33.417 50.776 23.95 56.03 16.25 56.87zM55.4 54.9l-30.12 1.5c6.12-2.6 12.56-7.03 18.32-12.8 6.02-6.02 10.45-12.65 12.96-18.82L55.4 54.9zm1.47-38.14c-.984 7.3-6.025 16.545-14.067 24.797-.005-.024-.004-.048-.01-.072l-2.55-8.7c-.156-.53-.712-.837-1.24-.678a1 1 0 0 0-.678 1.241l1.988 6.778-16.12-5.985L35.97 23.7c.182-.162.348-.34.503-.526l20.4-6.74c.004.027 0 .06.005.085l-.01.26zm-19.186 3.888L40.54 12.1c.23-.686.284-1.393.213-2.082l5.407 1.912a.96.96 0 0 0 .33.06 1.02 1.02 0 0 0 .95-.67c.18-.52-.1-1.1-.6-1.27l-4.5-1.6 4.07-4.37c.17-.01.34-.01.5-.01 3.2 0 5.7.88 7.45 2.62a7.43 7.43 0 0 1 .64.73c1.33 1.718 2 4.065 1.97 6.88l-19.275 6.367zm15.466-8.374l-2.447-.867a1 1 0 1 0-.668 1.886l2.447.867a1 1 0 1 0 .668-1.886zm-1.6 42.2c.256 0 .512-.098.707-.293l1.415-1.415a1 1 0 0 0-1.414-1.414l-1.415 1.415a1 1 0 0 0 0 1.414c.195.195.45.293.707.293zm-3.536-3.536c.256 0 .512-.098.707-.293l1.415-1.415a1 1 0 0 0-1.414-1.414l-1.415 1.415a1 1 0 0 0 0 1.414.99.99 0 0 0 .707.293zM43.782 47.1c.195.195.45.293.707.293s.512-.098.707-.293l1.414-1.414a1 1 0 0 0-1.414-1.414l-1.414 1.414a1 1 0 0 0 0 1.414z" fill="#8d6c9f"/></svg>