<svg xmlns="http://www.w3.org/2000/svg" viewBox="0 0 48 48" width="96" height="96" xmlns:v="https://vecta.io/nano"><path fill="#fff" d="M44.083 29.8c-.183-.83-.935-1.796-2.452-1.796-.3 0-.65.04-1.035.12-.708.146-1.31.217-1.842.24 4.133-7.04 6.816-16.82 4.16-20.214C39.412 3.667 34.7 3 32.202 3h-.235c-.93.015-1.893.13-2.863.34l-3.583.774c-.488-.06-.985-.104-1.503-.113h-.046-.152c-1.593 0-3.046.338-4.34.973l-1.25-.493c-1.72-.678-4.308-1.485-6.868-1.485a12.39 12.39 0 0 0-.431.008C8.407 3.093 6.24 4.05 4.664 5.77 2.696 7.915 1.8 11.054 2.003 15.1 2.013 15.31 4.46 36 11.4 36h.025.064c.9-.022 1.76-.384 2.563-1.077.613.46 1.406.732 2.145.84.488.115 1.366.278 2.418.278 1.284 0 2.442-.263 3.44-.738l-.016 3.418-.001.075.005.075c.097 1.42.342 2.698.71 3.7 1.05 2.86 2.866 4.434 5.11 4.434a4.56 4.56 0 0 0 .284-.009c1.846-.114 3.717-1.15 5.004-2.772 1.393-1.755 1.715-3.607 1.84-5.026L35 39.11v-4.167l.103.01.436.038.042.004.042.002a7.93 7.93 0 0 0 .381.008c1.507 0 3.362-.39 4.616-.974 1.2-.556 3.94-2.084 3.463-4.242z"/><path d="M33 34l.018-.565L33 33l.032-.022c.15-2.673.886-3.703 1.675-4.3l-.356-.475-1.192-1.674-.082-.158c-.067-.164-.23-.447-.435-.82-1.183-2.14-3.645-6.592-1.96-9.404.738-1.232 2.122-1.942 4.12-2.117-.817-2.323-3.878-7.926-10.818-8.04-6.047-.098-8.032 5.392-8.678 8.672.9-.377 1.906-.606 2.836-.606h.043c2.3.017 3.865 1.24 4.323 3.354.335 1.552.496 2.9.492 4.153-.01 2.72-.558 4.15-1.042 5.4l-.154.408a20.38 20.38 0 0 1-.38.937 12.31 12.31 0 0 0-.318.802c.484.1.864.265 1.125.38l.15.066a.98.98 0 0 1 .137.07c.848.516 1.376 1.3 1.5 2.233.06.498.05 3.893.03 6.855.087 1.285.305 2.364.593 3.146.4 1.114 1.43 3.24 3.394 3.12 1.37-.085 2.687-.92 3.56-2.02.938-1.18 1.284-2.487 1.414-3.958V34zm-17.886-5.083C13.5 27.234 12.715 24.97 13 22.86c.285-2.035.124-4.027.037-5.098l-.047-.77c0-.008.002-.015.003-.023.12-3.032 1.284-7.798 4.5-10.63C15.932 5.724 13.388 4.913 11 5c-3.742.136-7.364 2.724-7 10 .137 2.73 3.222 19.103 7.44 19 .603-.015 1.23-.402 1.872-1.176 1.017-1.223 2.005-2.332 2.708-3.104a7.62 7.62 0 0 1-.906-.803zm21.9-14.186a1.37 1.37 0 0 1-.022.408c.03.92-.068 1.813-.17 2.677-.074.636-.15 1.293-.17 1.952-.02.645.07 1.282.166 1.956.225 1.578.46 3.36-.765 5.437a9.11 9.11 0 0 1 .581.837c4.6-7.475 6.468-16.36 4.695-18.626C38.655 5.944 34.94 4.952 32 5c-.92.015-1.758.14-2.473.294 5.076 2.46 7.337 7.732 7.497 9.437zM41 30.07c-2.665.55-3.947.257-4.57-.126-.1.072-.2.133-.293.2-.372.225-.96.583-1.105 2.782.083.016.156.025.246.044l.435.04c1.32.06 3.05-.3 4.063-.78 2.185-1.014 3.376-2.592 1.223-2.148zm-18.977 2.05c-.037-.298-.198-.54-.492-.732l-.108-.047c-.36-.16-.77-.34-1.423-.34h-.004c-.127.01-.253.02-.38.02-.052 0-.103-.007-.155-.01-.474.365-1.148.647-2.816 1-2.98.76-1.22 1.655-.078 1.794 1.106.277 3.735.614 5.48-.8-.005-.448-.013-.756-.025-.866zM20.68 18.5c-.292.302-.753.566-1.262.484-.828-.134-1.463-1.133-1.417-1.508h0c.044-.374.75-.57 1.578-.435a3.07 3.07 0 0 1 .768.228c-.32-.688-.9-1.085-1.782-1.182-1.565-.174-3.226.644-3.56 1.097l.033.417c.093 1.147.265 3.284-.05 5.537-.208 1.485.393 3.17 1.567 4.395.757.8 1.64 1.3 2.513 1.438.1-.478.3-.944.513-1.425l.346-.852.162-.427a11.5 11.5 0 0 0 .91-4.703c.004-.905-.107-1.938-.318-3.064zm14.166 3.506c-.104-.73-.2-1.484-.185-2.303.023-.742.105-1.442.184-2.12l.138-1.55c-1.3.107-2.145.48-2.55 1.108a3.01 3.01 0 0 1 .568-.13c.892-.116 1.543.14 1.618.637.055.363-.253.705-.388.836a1.75 1.75 0 0 1-.981.488 1.56 1.56 0 0 1-.192.012 1.67 1.67 0 0 1-.95-.3c.112 1.973 1.567 4.612 2.283 5.907l.37.688c.393-1.12.248-2.14.086-3.275z" fill="#0277bd"/></svg>