<svg xmlns="http://www.w3.org/2000/svg" width="48" height="48" xmlns:v="https://vecta.io/nano"><path fill="#ffd600" d="M6,42V6h36v36H6z"/><path fill="#000001" d="M29.538 32.947c.692 1.124 1.444 2.2 3.037 2.2 1.338 0 2.04-.665 2.04-1.585 0-1.1-.726-1.492-2.198-2.133l-.807-.344c-2.33-.988-3.878-2.226-3.878-4.84 0-2.4 1.845-4.244 4.728-4.244 2.053 0 3.528.71 4.592 2.573l-2.514 1.607c-.553-.988-1.15-1.377-2.078-1.377-.946 0-1.545.597-1.545 1.377 0 .964.6 1.354 1.985 1.95l.807.344C36.452 29.645 38 30.84 38 33.523 38 36.415 35.716 38 32.65 38c-3 0-4.702-1.505-5.65-3.368l2.538-1.685zm-11.586.082c.506.906 1.275 1.603 2.38 1.603 1.058 0 1.667-.418 1.667-2.043V22h3.333v11.1c0 3.367-1.953 4.9-4.805 4.9-2.577 0-4.437-1.746-5.195-3.368l2.62-1.603z"/></svg>