<svg width="200" height="100" viewBox="0 0 200 100" fill="none" xmlns="http://www.w3.org/2000/svg">
<rect width="200" height="100" fill="#F7D214"/>
<path d="M72.7969 32.1875H81.9844C82.9219 32.1875 83.7969 32.2578 84.6094 32.3984C85.4375 32.5234 86.1016 32.8203 86.6016 33.2891C87.1172 33.7578 87.375 34.5 87.375 35.5156C87.375 36.5312 87.1172 37.2734 86.6016 37.7422C86.1016 38.2109 85.4375 38.5156 84.6094 38.6562C83.7969 38.7812 82.9219 38.8438 81.9844 38.8438H76.4062V45.2188H79.3594C80.2812 45.2188 81.1406 45.2812 81.9375 45.4062C82.7344 45.5156 83.375 45.7969 83.8594 46.25C84.3594 46.6875 84.6094 47.4062 84.6094 48.4062C84.6094 49.4062 84.3594 50.1328 83.8594 50.5859C83.375 51.0234 82.7344 51.3047 81.9375 51.4297C81.1406 51.5391 80.2812 51.5938 79.3594 51.5938H76.4062V58.3438H81.9844C82.9219 58.3438 83.7969 58.4062 84.6094 58.5312C85.4375 58.6562 86.1016 58.9531 86.6016 59.4219C87.1172 59.875 87.375 60.6094 87.375 61.625C87.375 62.6562 87.1172 63.4141 86.6016 63.8984C86.0859 64.3672 85.4141 64.6719 84.5859 64.8125C83.7734 64.9375 82.9062 65 81.9844 65H72.7969C71.6875 65 70.8828 64.7578 70.3828 64.2734C69.8984 63.7891 69.5938 63.1406 69.4688 62.3281C69.3438 61.5156 69.2812 60.6094 69.2812 59.6094V37.5781C69.2812 36.5781 69.3438 35.6719 69.4688 34.8594C69.5938 34.0469 69.8984 33.3984 70.3828 32.9141C70.8828 32.4297 71.6875 32.1875 72.7969 32.1875ZM98.4375 40.4375C98.4531 41.0938 98.6406 41.6875 99 42.2188C99.375 42.7344 99.8672 43.2266 100.477 43.6953C100.977 44.0859 101.672 44.5469 102.562 45.0781C103.453 45.6094 104.227 46.0703 104.883 46.4609C105.68 46.9453 106.461 47.4844 107.227 48.0781C107.992 48.6562 108.68 49.3125 109.289 50.0469C109.898 50.7812 110.391 51.6094 110.766 52.5312C111.141 53.4531 111.344 54.5 111.375 55.6719V55.8594C111.375 57.1094 111.219 58.2266 110.906 59.2109C110.281 61.0703 109.266 62.4531 107.859 63.3594C107.141 63.8281 106.422 64.1875 105.703 64.4375C104.938 64.7031 104.164 64.8906 103.383 65C102.617 65.1094 101.891 65.1719 101.203 65.1875H100.969C99.6719 65.1875 98.5078 65.0547 97.4766 64.7891C96.4766 64.5234 95.6172 64.1719 94.8984 63.7344C94.1797 63.2812 93.5859 62.7656 93.1172 62.1875C92.6328 61.6094 92.25 61.0078 91.9688 60.3828C91.6875 59.7734 91.4844 59.1641 91.3594 58.5547C91.2344 57.9453 91.1719 57.375 91.1719 56.8438C91.1719 55.7812 91.4922 54.9844 92.1328 54.4531C92.7891 53.9219 93.5781 53.6562 94.5 53.6562C95.3906 53.6562 96.2109 53.9297 96.9609 54.4766C97.7266 55.0078 98.125 55.7812 98.1562 56.7969C98.1875 57.9688 98.4531 58.7734 98.9531 59.2109C99.4531 59.6328 100.172 59.8438 101.109 59.8438C102.125 59.8125 102.914 59.5547 103.477 59.0703C104.055 58.5859 104.344 57.7188 104.344 56.4688C104.344 55.3906 104.023 54.4375 103.383 53.6094C102.758 52.7812 101.961 52.0234 100.992 51.3359C100.023 50.6328 99.0156 49.9531 97.9688 49.2969C96.875 48.5938 95.8438 47.8594 94.875 47.0938C93.9062 46.3125 93.1172 45.4297 92.5078 44.4453C91.8984 43.4609 91.5781 42.3125 91.5469 41V40.625C91.5625 38.9531 91.7812 37.5625 92.2031 36.4531C92.6406 35.3438 93.2812 34.4609 94.125 33.8047C94.9531 33.1484 95.9766 32.6875 97.1953 32.4219C98.4141 32.1406 99.8125 32 101.391 32H102C103.406 32 104.625 32.1562 105.656 32.4688C106.656 32.7812 107.484 33.1797 108.141 33.6641C108.812 34.1484 109.344 34.6953 109.734 35.3047C110.109 35.8984 110.391 36.5 110.578 37.1094C110.766 37.7031 110.883 38.2578 110.93 38.7734C110.977 39.2891 111 39.7031 111 40.0156C111 40.9375 110.664 41.6875 109.992 42.2656C109.336 42.8281 108.531 43.1094 107.578 43.1094C106.859 43.1094 106.156 42.8438 105.469 42.3125C104.781 41.7812 104.438 41.2031 104.438 40.5781C104.438 39.2969 104.203 38.4062 103.734 37.9062C103.281 37.4062 102.609 37.1562 101.719 37.1562C100.688 37.1562 99.8828 37.3438 99.3047 37.7188C98.7266 38.0938 98.4375 39 98.4375 40.4375ZM129.938 41.5625C130.531 41.5625 131.125 41.7656 131.719 42.1719C132.594 42.7656 133.031 43.4844 133.031 44.3281C133.031 44.8438 132.906 45.3828 132.656 45.9453C132.406 46.5078 132.094 47.0469 131.719 47.5625L127.547 53.2812L131.719 58.9531C132.078 59.5 132.383 60.0469 132.633 60.5938C132.898 61.1406 133.031 61.6719 133.031 62.1875C133.031 63.0625 132.594 63.7969 131.719 64.3906C131.078 64.7969 130.5 65 129.984 65C129.312 65 128.727 64.7344 128.227 64.2031C127.727 63.6719 127.234 63.0781 126.75 62.4219L123.938 58.4844L121.031 62.4219C120.625 63.0938 120.156 63.6953 119.625 64.2266C119.109 64.7422 118.531 65 117.891 65C117.375 65 116.797 64.7969 116.156 64.3906C115.281 63.7812 114.844 63.0469 114.844 62.1875C114.844 61.6719 114.969 61.1406 115.219 60.5938C115.484 60.0469 115.797 59.5 116.156 58.9531L120.094 53.2812L116.156 47.5625C115.797 47.0156 115.484 46.4766 115.219 45.9453C114.969 45.4141 114.844 44.8906 114.844 44.375C114.844 43.5156 115.281 42.7812 116.156 42.1719C116.797 41.7656 117.375 41.5625 117.891 41.5625C118.531 41.5625 119.109 41.8203 119.625 42.3359C120.141 42.8516 120.609 43.4375 121.031 44.0938L123.938 48.0312L126.75 44.0938C127.203 43.4375 127.68 42.8516 128.18 42.3359C128.68 41.8203 129.266 41.5625 129.938 41.5625Z" fill="#FCF8F8"/>
</svg>
