<svg width="200" height="100" viewBox="0 0 200 100" fill="none" xmlns="http://www.w3.org/2000/svg">
<rect width="200" height="100" fill="#2B8DAC"/>
<path d="M119.244 38.7816C119.345 38.5246 119.218 38.2344 118.961 38.1334L114.773 36.488C114.516 36.387 114.226 36.5135 114.125 36.7705C114.024 37.0276 114.15 37.3178 114.407 37.4187L118.13 38.8813L116.668 42.6044C116.567 42.8614 116.693 43.1516 116.95 43.2526C117.207 43.3535 117.497 43.227 117.598 42.97L119.244 38.7816ZM89.086 52.0871L118.978 39.0571L118.579 38.1405L88.6864 51.1704L89.086 52.0871Z" fill="black"/>
<path d="M119.043 58.9509C119.278 58.8046 119.349 58.4961 119.202 58.2619L116.817 54.446C116.671 54.2118 116.363 54.1406 116.128 54.287C115.894 54.4333 115.823 54.7418 115.969 54.9759L118.089 58.3679L114.697 60.4879C114.463 60.6343 114.392 60.9428 114.538 61.1769C114.685 61.4111 114.993 61.4823 115.227 61.3359L119.043 58.9509ZM88.7738 52.1159L118.666 59.0141L118.891 58.0397L88.9987 51.1415L88.7738 52.1159Z" fill="black"/>
<path d="M41.6055 48.2526C41.6055 47.6406 41.3372 47.2825 40.8008 47.1784C40.2643 47.0742 39.7227 47.0221 39.1758 47.0221H38.3672V49.5573H39.4141C39.974 49.5573 40.4792 49.4961 40.9297 49.3737C41.3802 49.2487 41.6055 48.875 41.6055 48.2526ZM42.5273 48.3112C42.5273 49.2122 42.181 49.7526 41.4883 49.9323C40.7982 50.1094 40.0378 50.1979 39.207 50.1979H38.3672V52.3424H39.5586C39.6576 52.3424 39.7292 52.3789 39.7734 52.4518C39.8177 52.5221 39.8398 52.6055 39.8398 52.7018C39.8398 52.7878 39.8138 52.8646 39.7617 52.9323C39.7122 52.9974 39.6419 53.0299 39.5508 53.0299H36.4297C36.3385 53.0299 36.2669 52.9974 36.2148 52.9323C36.1654 52.8646 36.1406 52.7878 36.1406 52.7018C36.1406 52.6055 36.1628 52.5221 36.207 52.4518C36.2513 52.3789 36.3229 52.3424 36.4219 52.3424H37.4531V47.0221H36.5039C36.4049 47.0221 36.3333 46.987 36.2891 46.9167C36.2448 46.8437 36.2227 46.7591 36.2227 46.6628C36.2227 46.5768 36.2474 46.5013 36.2969 46.4362C36.349 46.3685 36.4206 46.3346 36.5117 46.3346H39.0625C39.9323 46.3346 40.7266 46.431 41.4453 46.6237C42.1667 46.8164 42.5273 47.3789 42.5273 48.3112ZM46.25 49.1003C45.9375 49.1003 45.6589 49.1693 45.4141 49.3073C45.1693 49.4453 44.9831 49.6094 44.8555 49.7995V52.3424H45.9023C46.0013 52.3424 46.0729 52.3789 46.1172 52.4518C46.1615 52.5221 46.1836 52.6055 46.1836 52.7018C46.1836 52.7878 46.1576 52.8646 46.1055 52.9323C46.056 52.9974 45.9857 53.0299 45.8945 53.0299H43.3125C43.2031 53.0299 43.1224 52.9987 43.0703 52.9362C43.0182 52.8737 42.9922 52.793 42.9922 52.694C42.9922 52.5976 43.0156 52.5156 43.0625 52.4479C43.112 52.3776 43.1875 52.3424 43.2891 52.3424H44.0547V49.2057L43.4961 49.3424C43.4909 49.345 43.4831 49.3476 43.4727 49.3503C43.4648 49.3503 43.4544 49.3503 43.4414 49.3503C43.3633 49.3503 43.2904 49.319 43.2227 49.2565C43.1549 49.1914 43.1211 49.1185 43.1211 49.0378C43.1211 48.9492 43.1393 48.8789 43.1758 48.8268C43.2148 48.7721 43.2708 48.7331 43.3438 48.7096L44.4336 48.3971C44.444 48.3971 44.4505 48.3958 44.4531 48.3932C44.4557 48.3906 44.4622 48.3893 44.4727 48.3893H44.4961C44.5508 48.3893 44.5977 48.4062 44.6367 48.4401C44.6758 48.4713 44.6953 48.5156 44.6953 48.5729L44.7773 49.3112C44.957 49.0378 45.1927 48.8164 45.4844 48.6471C45.7786 48.4753 46.1536 48.3893 46.6094 48.3893C46.6953 48.3893 46.7708 48.4154 46.8359 48.4674C46.9036 48.5169 46.9375 48.5872 46.9375 48.6784V49.5104C46.9375 49.6198 46.9062 49.7005 46.8438 49.7526C46.7812 49.8047 46.7005 49.8307 46.6016 49.8307C46.5052 49.8307 46.4219 49.8073 46.3516 49.7604C46.2839 49.7109 46.25 49.6354 46.25 49.5338V49.1003ZM49.8477 49.0534C49.3529 49.0534 48.9688 49.2135 48.6953 49.5338C48.4245 49.8542 48.2891 50.2617 48.2891 50.7565C48.2891 51.2539 48.4245 51.6628 48.6953 51.9831C48.9688 52.3034 49.3529 52.4635 49.8477 52.4635C50.3294 52.4635 50.7018 52.3008 50.9648 51.9753C51.2279 51.6497 51.3594 51.2435 51.3594 50.7565C51.3594 50.2695 51.2279 49.8646 50.9648 49.5417C50.7018 49.2161 50.3294 49.0534 49.8477 49.0534ZM49.8477 53.1276C49.1263 53.1276 48.5417 52.9128 48.0938 52.4831C47.6458 52.0534 47.4219 51.4779 47.4219 50.7565C47.4219 50.0325 47.6458 49.457 48.0938 49.0299C48.5443 48.6029 49.1289 48.3893 49.8477 48.3893C50.556 48.3893 51.1289 48.6068 51.5664 49.0417C52.0039 49.4739 52.2227 50.0456 52.2227 50.7565C52.2227 51.4674 52.0039 52.0404 51.5664 52.4753C51.1289 52.9101 50.556 53.1276 49.8477 53.1276ZM59.7422 48.3893C60.2214 48.3893 60.6198 48.5338 60.9375 48.8229C61.2552 49.112 61.4141 49.4987 61.4141 49.9831V52.3424H61.9844C62.0833 52.3424 62.1536 52.3789 62.1953 52.4518C62.2396 52.5221 62.2617 52.6055 62.2617 52.7018C62.2617 52.7878 62.237 52.8646 62.1875 52.9323C62.138 52.9974 62.0677 53.0299 61.9766 53.0299H60.0703C59.9609 53.0299 59.8802 52.9987 59.8281 52.9362C59.776 52.8737 59.75 52.793 59.75 52.694C59.75 52.5976 59.7734 52.5156 59.8203 52.4479C59.8698 52.3776 59.9453 52.3424 60.0469 52.3424H60.625V50.0534C60.625 49.7435 60.5456 49.5 60.3867 49.3229C60.2305 49.1432 59.9948 49.0534 59.6797 49.0534C59.2604 49.0534 58.9076 49.1654 58.6211 49.3893C58.3346 49.6133 58.112 49.8724 57.9531 50.1667V52.3424H58.5977C58.6966 52.3424 58.7682 52.3789 58.8125 52.4518C58.8568 52.5221 58.8789 52.6055 58.8789 52.7018C58.8789 52.7878 58.8529 52.8646 58.8008 52.9323C58.7513 52.9974 58.681 53.0299 58.5898 53.0299H56.5273C56.418 53.0299 56.3372 52.9987 56.2852 52.9362C56.2331 52.8737 56.207 52.793 56.207 52.694C56.207 52.5976 56.2305 52.5156 56.2773 52.4479C56.3268 52.3776 56.4023 52.3424 56.5039 52.3424H57.1602V50.0534C57.1602 49.7435 57.0807 49.5 56.9219 49.3229C56.7656 49.1432 56.5299 49.0534 56.2148 49.0534C55.7747 49.0534 55.4036 49.1575 55.1016 49.3659C54.8021 49.5742 54.5781 49.8281 54.4297 50.1276V52.3424H55.1523C55.2513 52.3424 55.3216 52.3789 55.3633 52.4518C55.4076 52.5221 55.4297 52.6055 55.4297 52.7018C55.4297 52.7878 55.4049 52.8646 55.3555 52.9323C55.306 52.9974 55.2357 53.0299 55.1445 53.0299H53.0781C52.9688 53.0299 52.888 52.9987 52.8359 52.9362C52.7839 52.8737 52.7578 52.793 52.7578 52.694C52.7578 52.5976 52.7812 52.5156 52.8281 52.4479C52.8776 52.3776 52.9531 52.3424 53.0547 52.3424H53.6328V49.2057L53.0703 49.3424C53.0651 49.345 53.0573 49.3476 53.0469 49.3503C53.0391 49.3503 53.0286 49.3503 53.0156 49.3503C52.9375 49.3503 52.8646 49.319 52.7969 49.2565C52.7292 49.1914 52.6953 49.1185 52.6953 49.0378C52.6953 48.9492 52.7135 48.8789 52.75 48.8268C52.7891 48.7721 52.8451 48.7331 52.918 48.7096L54.0078 48.3971C54.0182 48.3971 54.0247 48.3958 54.0273 48.3932C54.0299 48.3906 54.0365 48.3893 54.0469 48.3893H54.0703C54.125 48.3893 54.1719 48.4062 54.2109 48.4401C54.25 48.4713 54.2695 48.5156 54.2695 48.5729L54.3516 49.3112C54.5078 49.0482 54.763 48.8294 55.1172 48.6549C55.474 48.4779 55.862 48.3893 56.2812 48.3893C56.6745 48.3893 57.0065 48.4818 57.2773 48.6667C57.5482 48.8516 57.7383 49.0898 57.8477 49.3815C58.0273 49.1211 58.2786 48.8906 58.6016 48.6901C58.9245 48.4896 59.3047 48.3893 59.7422 48.3893ZM63.9922 47.4557C63.8281 47.4557 63.6875 47.3984 63.5703 47.2838C63.4557 47.1667 63.3984 47.026 63.3984 46.862C63.3984 46.6979 63.4557 46.5586 63.5703 46.444C63.6875 46.3268 63.8281 46.2682 63.9922 46.2682C64.1562 46.2682 64.2956 46.3268 64.4102 46.444C64.5247 46.5586 64.582 46.6979 64.582 46.862C64.582 47.026 64.5247 47.1667 64.4102 47.2838C64.2956 47.3984 64.1562 47.4557 63.9922 47.4557ZM62.7891 52.7057C62.7891 52.6094 62.8125 52.5273 62.8594 52.4596C62.9089 52.3893 62.9844 52.3542 63.0859 52.3542H63.6211V49.1901L63.0625 49.3424C63.0573 49.345 63.0495 49.3476 63.0391 49.3503C63.0312 49.3503 63.0208 49.3503 63.0078 49.3503C62.9297 49.3503 62.8568 49.319 62.7891 49.2565C62.7214 49.1914 62.6875 49.1185 62.6875 49.0378C62.6875 48.9544 62.7057 48.8841 62.7422 48.8268C62.7812 48.7669 62.8372 48.7279 62.9102 48.7096L64.1602 48.3971C64.168 48.3945 64.1771 48.3932 64.1875 48.3932C64.1979 48.3906 64.2096 48.3893 64.2227 48.3893C64.2799 48.3893 64.3268 48.4062 64.3633 48.4401C64.4023 48.4713 64.4219 48.5156 64.4219 48.5729V52.3542H65.0234C65.1224 52.3542 65.194 52.3906 65.2383 52.4635C65.2826 52.5338 65.3047 52.6172 65.3047 52.7135C65.3047 52.7995 65.2786 52.8737 65.2266 52.9362C65.1771 52.9987 65.1068 53.0299 65.0156 53.0299H63.1094C63 53.0299 62.9193 53.0013 62.8672 52.944C62.8151 52.8841 62.7891 52.8047 62.7891 52.7057ZM66.082 49.6667C66.082 49.1641 66.2617 48.8255 66.6211 48.651C66.9805 48.4766 67.3646 48.3893 67.7734 48.3893C68.0391 48.3893 68.3021 48.4453 68.5625 48.5573C68.8229 48.6667 69.0013 48.8073 69.0977 48.9792L69.1016 48.6471C69.1016 48.5664 69.1302 48.5026 69.1875 48.4557C69.2448 48.4062 69.3138 48.3815 69.3945 48.3815C69.5091 48.3815 69.5951 48.4075 69.6523 48.4596C69.7096 48.5117 69.7383 48.5872 69.7383 48.6862L69.7227 49.8151C69.7122 49.9036 69.6784 49.9713 69.6211 50.0182C69.5638 50.0625 69.4909 50.0846 69.4023 50.0846C69.3164 50.0846 69.2591 50.0586 69.2305 50.0065C69.2018 49.9544 69.1745 49.8802 69.1484 49.7838C69.0599 49.5104 68.8763 49.3008 68.5977 49.1549C68.3216 49.0091 68.0443 48.9362 67.7656 48.9362C67.526 48.9362 67.3164 48.9831 67.1367 49.0768C66.957 49.1706 66.8672 49.3125 66.8672 49.5026C66.8672 49.6667 66.9206 49.7943 67.0273 49.8854C67.1341 49.9766 67.3073 50.0521 67.5469 50.112L68.5469 50.4401C68.8958 50.5573 69.2122 50.7057 69.4961 50.8854C69.7799 51.0651 69.9219 51.375 69.9219 51.8151C69.9219 52.2474 69.7734 52.5755 69.4766 52.7995C69.1823 53.0234 68.7682 53.1354 68.2344 53.1354C67.9557 53.1354 67.6497 53.0911 67.3164 53.0026C66.9831 52.9114 66.7422 52.7838 66.5938 52.6198C66.5938 52.7917 66.5625 52.9036 66.5 52.9557C66.4401 53.0052 66.3659 53.0299 66.2773 53.0299C66.1784 53.0299 66.0951 53.0078 66.0273 52.9635C65.9622 52.9193 65.9297 52.845 65.9297 52.7409V51.4206C65.9323 51.3398 65.9635 51.2786 66.0234 51.237C66.0833 51.1953 66.151 51.1745 66.2266 51.1745C66.3411 51.1745 66.4206 51.2018 66.4648 51.2565C66.5117 51.3086 66.5469 51.3854 66.5703 51.487C66.651 51.8411 66.8372 52.1068 67.1289 52.2838C67.4206 52.4609 67.7747 52.5495 68.1914 52.5495C68.444 52.5495 68.6602 52.5013 68.8398 52.4049C69.0221 52.3086 69.1133 52.151 69.1133 51.9323C69.1133 51.7135 69.0612 51.5534 68.957 51.4518C68.8529 51.3503 68.668 51.2591 68.4023 51.1784L67.3398 50.8463C67.0091 50.7422 66.7161 50.6042 66.4609 50.4323C66.2083 50.2604 66.082 50.0052 66.082 49.6667ZM71.3945 50.8463C71.3945 51.3568 71.5534 51.7461 71.8711 52.0143C72.1914 52.2799 72.5846 52.4128 73.0508 52.4128C73.3815 52.4128 73.6406 52.3516 73.8281 52.2292C74.0182 52.1042 74.1992 51.9622 74.3711 51.8034C74.4102 51.7695 74.4518 51.7448 74.4961 51.7292C74.5404 51.7109 74.5846 51.7018 74.6289 51.7018C74.7331 51.7018 74.8216 51.7344 74.8945 51.7995C74.9674 51.862 75.0039 51.9466 75.0039 52.0534C75.0039 52.3867 74.7617 52.6497 74.2773 52.8424C73.7956 53.0325 73.3763 53.1276 73.0195 53.1276C72.306 53.1276 71.7174 52.9167 71.2539 52.4948C70.793 52.0703 70.5625 51.5 70.5625 50.7838C70.5625 50.0755 70.7747 49.5 71.1992 49.0573C71.6237 48.612 72.1992 48.3893 72.9258 48.3893C73.4466 48.3893 73.9219 48.5703 74.3516 48.9323C74.7812 49.2917 74.9961 49.7565 74.9961 50.3268C74.9961 50.5221 74.9349 50.6393 74.8125 50.6784C74.6927 50.7174 74.5404 50.7461 74.3555 50.7643L71.3945 50.8463ZM74.0156 50.0768C74.0156 49.7044 73.901 49.4414 73.6719 49.2878C73.4453 49.1315 73.1966 49.0534 72.9258 49.0534C72.4674 49.0534 72.1029 49.1667 71.832 49.3932C71.5638 49.6198 71.4128 49.9206 71.3789 50.2956L73.7266 50.2448C73.7995 50.2422 73.8659 50.2292 73.9258 50.2057C73.9857 50.1797 74.0156 50.1367 74.0156 50.0768ZM75.9961 49.6667C75.9961 49.1641 76.1758 48.8255 76.5352 48.651C76.8945 48.4766 77.2786 48.3893 77.6875 48.3893C77.9531 48.3893 78.2161 48.4453 78.4766 48.5573C78.737 48.6667 78.9154 48.8073 79.0117 48.9792L79.0156 48.6471C79.0156 48.5664 79.0443 48.5026 79.1016 48.4557C79.1589 48.4062 79.2279 48.3815 79.3086 48.3815C79.4232 48.3815 79.5091 48.4075 79.5664 48.4596C79.6237 48.5117 79.6523 48.5872 79.6523 48.6862L79.6367 49.8151C79.6263 49.9036 79.5924 49.9713 79.5352 50.0182C79.4779 50.0625 79.4049 50.0846 79.3164 50.0846C79.2305 50.0846 79.1732 50.0586 79.1445 50.0065C79.1159 49.9544 79.0885 49.8802 79.0625 49.7838C78.974 49.5104 78.7904 49.3008 78.5117 49.1549C78.2357 49.0091 77.9583 48.9362 77.6797 48.9362C77.4401 48.9362 77.2305 48.9831 77.0508 49.0768C76.8711 49.1706 76.7812 49.3125 76.7812 49.5026C76.7812 49.6667 76.8346 49.7943 76.9414 49.8854C77.0482 49.9766 77.2214 50.0521 77.4609 50.112L78.4609 50.4401C78.8099 50.5573 79.1263 50.7057 79.4102 50.8854C79.694 51.0651 79.8359 51.375 79.8359 51.8151C79.8359 52.2474 79.6875 52.5755 79.3906 52.7995C79.0964 53.0234 78.6823 53.1354 78.1484 53.1354C77.8698 53.1354 77.5638 53.0911 77.2305 53.0026C76.8971 52.9114 76.6562 52.7838 76.5078 52.6198C76.5078 52.7917 76.4766 52.9036 76.4141 52.9557C76.3542 53.0052 76.2799 53.0299 76.1914 53.0299C76.0924 53.0299 76.0091 53.0078 75.9414 52.9635C75.8763 52.9193 75.8438 52.845 75.8438 52.7409V51.4206C75.8464 51.3398 75.8776 51.2786 75.9375 51.237C75.9974 51.1953 76.0651 51.1745 76.1406 51.1745C76.2552 51.1745 76.3346 51.2018 76.3789 51.2565C76.4258 51.3086 76.4609 51.3854 76.4844 51.487C76.5651 51.8411 76.7513 52.1068 77.043 52.2838C77.3346 52.4609 77.6888 52.5495 78.1055 52.5495C78.3581 52.5495 78.5742 52.5013 78.7539 52.4049C78.9362 52.3086 79.0273 52.151 79.0273 51.9323C79.0273 51.7135 78.9753 51.5534 78.8711 51.4518C78.7669 51.3503 78.582 51.2591 78.3164 51.1784L77.2539 50.8463C76.9232 50.7422 76.6302 50.6042 76.375 50.4323C76.1224 50.2604 75.9961 50.0052 75.9961 49.6667Z" fill="#FCE301"/>
<path d="M124.77 58.5479C125.364 58.5479 125.887 58.4971 126.34 58.3955C126.794 58.2913 127.02 57.9554 127.02 57.3877C127.02 56.8096 126.765 56.471 126.254 56.3721C125.747 56.2705 125.204 56.2197 124.626 56.2197H124.051V58.5479H124.77ZM127.969 57.3486C127.969 57.8799 127.796 58.2653 127.45 58.5049C127.103 58.7445 126.678 58.9085 126.172 58.9971C126.42 59.1065 126.636 59.2497 126.821 59.4268C127.006 59.6038 127.157 59.8343 127.274 60.1182L127.86 61.5361H128.434C128.59 61.5361 128.7 61.5635 128.762 61.6182C128.825 61.6729 128.856 61.7666 128.856 61.8994C128.856 62.0453 128.817 62.1377 128.739 62.1768C128.661 62.2132 128.56 62.2315 128.438 62.2315L126.743 62.2275C126.652 62.2275 126.58 62.195 126.528 62.1299C126.478 62.0622 126.454 61.9854 126.454 61.8994C126.454 61.8031 126.476 61.7184 126.52 61.6455C126.564 61.5726 126.636 61.5361 126.735 61.5361H126.926L126.489 60.4307C126.372 60.1364 126.18 59.8656 125.915 59.6182C125.652 59.3682 125.326 59.2432 124.938 59.2432H124.051V61.5361H125.083C125.182 61.5361 125.253 61.5726 125.297 61.6455C125.342 61.7184 125.364 61.8031 125.364 61.8994C125.364 61.9854 125.338 62.0622 125.286 62.1299C125.236 62.195 125.166 62.2275 125.075 62.2275H122.274C122.183 62.2275 122.111 62.195 122.059 62.1299C122.01 62.0622 121.985 61.9854 121.985 61.8994C121.985 61.8031 122.007 61.7184 122.051 61.6455C122.096 61.5726 122.167 61.5361 122.266 61.5361H123.137V56.2197H122.426C122.327 56.2197 122.256 56.1846 122.212 56.1143C122.167 56.0413 122.145 55.9567 122.145 55.8604C122.145 55.7744 122.17 55.6989 122.219 55.6338C122.271 55.5661 122.343 55.5322 122.434 55.5322H124.747C125.593 55.5322 126.342 55.6273 126.993 55.8174C127.644 56.0049 127.969 56.5153 127.969 57.3486ZM130.09 60.044C130.09 60.5544 130.249 60.9437 130.567 61.2119C130.887 61.4775 131.281 61.6104 131.747 61.6104C132.077 61.6104 132.337 61.5492 132.524 61.4268C132.714 61.3018 132.895 61.1598 133.067 61.001C133.106 60.9671 133.148 60.9424 133.192 60.9268C133.236 60.9085 133.281 60.8994 133.325 60.8994C133.429 60.8994 133.517 60.932 133.59 60.9971C133.663 61.0596 133.7 61.1442 133.7 61.251C133.7 61.5843 133.458 61.8473 132.973 62.04C132.491 62.2302 132.072 62.3252 131.715 62.3252C131.002 62.3252 130.413 62.1143 129.95 61.6924C129.489 61.2679 129.258 60.6976 129.258 59.9815C129.258 59.2731 129.471 58.6976 129.895 58.2549C130.32 57.8096 130.895 57.5869 131.622 57.5869C132.142 57.5869 132.618 57.7679 133.047 58.1299C133.477 58.4893 133.692 58.9541 133.692 59.5244C133.692 59.7197 133.631 59.8369 133.508 59.876C133.389 59.915 133.236 59.9437 133.051 59.9619L130.09 60.044ZM132.712 59.2744C132.712 58.902 132.597 58.639 132.368 58.4854C132.141 58.3291 131.892 58.251 131.622 58.251C131.163 58.251 130.799 58.3643 130.528 58.5908C130.26 58.8174 130.109 59.1182 130.075 59.4932L132.422 59.4424C132.495 59.4398 132.562 59.4268 132.622 59.4033C132.682 59.3773 132.712 59.3343 132.712 59.2744ZM134.915 63.4893C135.271 63.4893 135.511 63.3213 135.633 62.9854C135.756 62.6494 135.817 62.2471 135.817 61.7783V58.3877L135.254 58.54C135.249 58.5427 135.241 58.5453 135.231 58.5479C135.223 58.5479 135.213 58.5479 135.2 58.5479C135.122 58.5479 135.049 58.5166 134.981 58.4541C134.913 58.389 134.879 58.3161 134.879 58.2354C134.879 58.152 134.898 58.0817 134.934 58.0244C134.973 57.9645 135.029 57.9255 135.102 57.9072L136.352 57.5947C136.36 57.5921 136.369 57.5908 136.379 57.5908C136.39 57.5882 136.402 57.5869 136.415 57.5869C136.472 57.5869 136.52 57.6012 136.559 57.6299C136.598 57.6585 136.618 57.7028 136.618 57.7627V61.7783C136.618 62.3721 136.501 62.9177 136.266 63.415C136.034 63.915 135.57 64.165 134.872 64.165C134.57 64.165 134.313 64.0934 134.102 63.9502C133.891 63.8096 133.786 63.5518 133.786 63.1768C133.786 63.0231 133.81 62.9046 133.86 62.8213C133.909 62.738 134.012 62.6963 134.169 62.6963C134.278 62.6963 134.364 62.7302 134.426 62.7979C134.489 62.8682 134.52 62.9645 134.52 63.0869C134.554 63.2093 134.567 63.307 134.559 63.3799C134.554 63.4528 134.672 63.4893 134.915 63.4893ZM135.43 56.0596C135.43 55.9111 135.476 55.7731 135.567 55.6455C135.658 55.5153 135.778 55.4502 135.926 55.4502C136.096 55.4502 136.241 55.501 136.364 55.6025C136.489 55.7015 136.551 55.8356 136.551 56.0049C136.551 56.1716 136.499 56.307 136.395 56.4111C136.291 56.5127 136.157 56.5635 135.993 56.5635C135.844 56.5635 135.713 56.5166 135.598 56.4229C135.486 56.3291 135.43 56.208 135.43 56.0596ZM138.348 60.044C138.348 60.5544 138.507 60.9437 138.825 61.2119C139.145 61.4775 139.538 61.6104 140.004 61.6104C140.335 61.6104 140.594 61.5492 140.782 61.4268C140.972 61.3018 141.153 61.1598 141.325 61.001C141.364 60.9671 141.406 60.9424 141.45 60.9268C141.494 60.9085 141.538 60.8994 141.583 60.8994C141.687 60.8994 141.775 60.932 141.848 60.9971C141.921 61.0596 141.958 61.1442 141.958 61.251C141.958 61.5843 141.715 61.8473 141.231 62.04C140.749 62.2302 140.33 62.3252 139.973 62.3252C139.26 62.3252 138.671 62.1143 138.208 61.6924C137.747 61.2679 137.516 60.6976 137.516 59.9815C137.516 59.2731 137.728 58.6976 138.153 58.2549C138.577 57.8096 139.153 57.5869 139.879 57.5869C140.4 57.5869 140.876 57.7679 141.305 58.1299C141.735 58.4893 141.95 58.9541 141.95 59.5244C141.95 59.7197 141.889 59.8369 141.766 59.876C141.646 59.915 141.494 59.9437 141.309 59.9619L138.348 60.044ZM140.969 59.2744C140.969 58.902 140.855 58.639 140.626 58.4854C140.399 58.3291 140.15 58.251 139.879 58.251C139.421 58.251 139.057 58.3643 138.786 58.5908C138.517 58.8174 138.366 59.1182 138.333 59.4932L140.68 59.4424C140.753 59.4398 140.82 59.4268 140.879 59.4033C140.939 59.3773 140.969 59.3343 140.969 59.2744ZM145.219 57.5869C145.613 57.5869 145.99 57.6677 146.352 57.8291C146.717 57.988 146.899 58.3109 146.899 58.7979C146.899 58.9515 146.869 59.0817 146.809 59.1885C146.749 59.2927 146.653 59.3447 146.52 59.3447C146.325 59.3447 146.2 59.2315 146.145 59.0049C146.09 58.7757 146.038 58.557 145.989 58.3486C145.861 58.3148 145.735 58.29 145.61 58.2744C145.488 58.2588 145.366 58.251 145.247 58.251C144.744 58.251 144.323 58.3981 143.985 58.6924C143.646 58.9841 143.477 59.3864 143.477 59.8994C143.477 60.4541 143.642 60.8682 143.973 61.1416C144.307 61.4124 144.685 61.5479 145.11 61.5479C145.331 61.5479 145.554 61.5062 145.778 61.4229C146.002 61.3369 146.206 61.2119 146.391 61.0479C146.428 61.0166 146.467 60.9919 146.508 60.9736C146.55 60.9554 146.593 60.9463 146.637 60.9463C146.744 60.9463 146.833 60.9736 146.903 61.0283C146.976 61.0804 147.012 61.1546 147.012 61.251C147.012 61.5843 146.788 61.8473 146.34 62.04C145.892 62.2302 145.498 62.3252 145.157 62.3252C144.409 62.3252 143.797 62.1104 143.321 61.6807C142.847 61.2484 142.61 60.6546 142.61 59.8994C142.61 59.1598 142.869 58.5895 143.387 58.1885C143.908 57.7874 144.519 57.5869 145.219 57.5869ZM149.462 61.7041C149.712 61.7041 149.873 61.6338 149.946 61.4932C150.019 61.3525 150.129 61.2822 150.278 61.2822C150.359 61.2822 150.425 61.3122 150.477 61.3721C150.532 61.4294 150.559 61.4984 150.559 61.5791C150.559 61.8109 150.42 61.9945 150.141 62.1299C149.863 62.2653 149.592 62.333 149.329 62.333C149.024 62.333 148.757 62.2262 148.528 62.0127C148.299 61.7966 148.184 61.5453 148.184 61.2588V58.4932H147.598C147.489 58.4932 147.408 58.4619 147.356 58.3994C147.304 58.3369 147.278 58.2562 147.278 58.1572C147.278 58.0609 147.301 57.9775 147.348 57.9072C147.398 57.8369 147.473 57.8018 147.575 57.8018H148.184C148.184 57.5648 148.205 57.2484 148.247 56.8525C148.288 56.4567 148.421 56.2588 148.645 56.2588C148.71 56.2588 148.766 56.2666 148.813 56.2822C148.863 56.2979 148.911 56.3226 148.958 56.3565V56.4346C148.958 56.4684 148.959 56.5075 148.962 56.5518C148.964 56.5934 148.965 56.6312 148.965 56.665V57.8018H149.989C150.088 57.8018 150.159 57.8382 150.204 57.9111C150.248 57.9841 150.27 58.0687 150.27 58.165C150.27 58.251 150.244 58.3278 150.192 58.3955C150.142 58.4606 150.072 58.4932 149.981 58.4932H148.965V61.1377C148.965 61.3408 149.012 61.4867 149.106 61.5752C149.2 61.6611 149.318 61.7041 149.462 61.7041Z" fill="#EE0000"/>
<path d="M124.77 36.3203C125.364 36.3203 125.887 36.2695 126.34 36.168C126.794 36.0638 127.02 35.7279 127.02 35.1602C127.02 34.582 126.765 34.2435 126.254 34.1445C125.747 34.043 125.204 33.9922 124.626 33.9922H124.051V36.3203H124.77ZM127.969 35.1211C127.969 35.6523 127.796 36.0378 127.45 36.2773C127.103 36.5169 126.678 36.681 126.172 36.7695C126.42 36.8789 126.636 37.0221 126.821 37.1992C127.006 37.3763 127.157 37.6068 127.274 37.8906L127.86 39.3086H128.434C128.59 39.3086 128.7 39.3359 128.762 39.3906C128.825 39.4453 128.856 39.5391 128.856 39.6719C128.856 39.8177 128.817 39.9102 128.739 39.9492C128.661 39.9857 128.56 40.0039 128.438 40.0039L126.743 40C126.652 40 126.58 39.9674 126.528 39.9023C126.478 39.8346 126.454 39.7578 126.454 39.6719C126.454 39.5755 126.476 39.4909 126.52 39.418C126.564 39.3451 126.636 39.3086 126.735 39.3086H126.926L126.489 38.2031C126.372 37.9089 126.18 37.638 125.915 37.3906C125.652 37.1406 125.326 37.0156 124.938 37.0156H124.051V39.3086H125.083C125.182 39.3086 125.253 39.3451 125.297 39.418C125.342 39.4909 125.364 39.5755 125.364 39.6719C125.364 39.7578 125.338 39.8346 125.286 39.9023C125.236 39.9674 125.166 40 125.075 40H122.274C122.183 40 122.111 39.9674 122.059 39.9023C122.01 39.8346 121.985 39.7578 121.985 39.6719C121.985 39.5755 122.007 39.4909 122.051 39.418C122.096 39.3451 122.167 39.3086 122.266 39.3086H123.137V33.9922H122.426C122.327 33.9922 122.256 33.957 122.212 33.8867C122.167 33.8138 122.145 33.7292 122.145 33.6328C122.145 33.5469 122.17 33.4714 122.219 33.4062C122.271 33.3385 122.343 33.3047 122.434 33.3047H124.747C125.593 33.3047 126.342 33.3997 126.993 33.5898C127.644 33.7773 127.969 34.2878 127.969 35.1211ZM130.09 37.8164C130.09 38.3268 130.249 38.7161 130.567 38.9844C130.887 39.25 131.281 39.3828 131.747 39.3828C132.077 39.3828 132.337 39.3216 132.524 39.1992C132.714 39.0742 132.895 38.9323 133.067 38.7734C133.106 38.7396 133.148 38.7148 133.192 38.6992C133.236 38.681 133.281 38.6719 133.325 38.6719C133.429 38.6719 133.517 38.7044 133.59 38.7695C133.663 38.832 133.7 38.9167 133.7 39.0234C133.7 39.3568 133.458 39.6198 132.973 39.8125C132.491 40.0026 132.072 40.0977 131.715 40.0977C131.002 40.0977 130.413 39.8867 129.95 39.4648C129.489 39.0404 129.258 38.4701 129.258 37.7539C129.258 37.0456 129.471 36.4701 129.895 36.0273C130.32 35.582 130.895 35.3594 131.622 35.3594C132.142 35.3594 132.618 35.5404 133.047 35.9023C133.477 36.2617 133.692 36.7266 133.692 37.2969C133.692 37.4922 133.631 37.6094 133.508 37.6484C133.389 37.6875 133.236 37.7161 133.051 37.7344L130.09 37.8164ZM132.712 37.0469C132.712 36.6745 132.597 36.4115 132.368 36.2578C132.141 36.1016 131.892 36.0234 131.622 36.0234C131.163 36.0234 130.799 36.1367 130.528 36.3633C130.26 36.5898 130.109 36.8906 130.075 37.2656L132.422 37.2148C132.495 37.2122 132.562 37.1992 132.622 37.1758C132.682 37.1497 132.712 37.1068 132.712 37.0469ZM134.692 36.6367C134.692 36.1341 134.872 35.7956 135.231 35.6211C135.59 35.4466 135.975 35.3594 136.383 35.3594C136.649 35.3594 136.912 35.4154 137.172 35.5273C137.433 35.6367 137.611 35.7773 137.708 35.9492L137.712 35.6172C137.712 35.5365 137.74 35.4727 137.797 35.4258C137.855 35.3763 137.924 35.3516 138.004 35.3516C138.119 35.3516 138.205 35.3776 138.262 35.4297C138.32 35.4818 138.348 35.5573 138.348 35.6562L138.333 36.7852C138.322 36.8737 138.288 36.9414 138.231 36.9883C138.174 37.0326 138.101 37.0547 138.012 37.0547C137.926 37.0547 137.869 37.0286 137.84 36.9766C137.812 36.9245 137.784 36.8503 137.758 36.7539C137.67 36.4805 137.486 36.2708 137.208 36.125C136.932 35.9792 136.654 35.9062 136.376 35.9062C136.136 35.9062 135.926 35.9531 135.747 36.0469C135.567 36.1406 135.477 36.2826 135.477 36.4727C135.477 36.6367 135.531 36.7643 135.637 36.8555C135.744 36.9466 135.917 37.0221 136.157 37.082L137.157 37.4102C137.506 37.5273 137.822 37.6758 138.106 37.8555C138.39 38.0352 138.532 38.3451 138.532 38.7852C138.532 39.2174 138.383 39.5456 138.087 39.7695C137.792 39.9935 137.378 40.1055 136.844 40.1055C136.566 40.1055 136.26 40.0612 135.926 39.9727C135.593 39.8815 135.352 39.7539 135.204 39.5898C135.204 39.7617 135.172 39.8737 135.11 39.9258C135.05 39.9753 134.976 40 134.887 40C134.788 40 134.705 39.9779 134.637 39.9336C134.572 39.8893 134.54 39.8151 134.54 39.7109V38.3906C134.542 38.3099 134.573 38.2487 134.633 38.207C134.693 38.1654 134.761 38.1445 134.837 38.1445C134.951 38.1445 135.031 38.1719 135.075 38.2266C135.122 38.2786 135.157 38.3555 135.18 38.457C135.261 38.8112 135.447 39.0768 135.739 39.2539C136.031 39.431 136.385 39.5195 136.801 39.5195C137.054 39.5195 137.27 39.4714 137.45 39.375C137.632 39.2786 137.723 39.1211 137.723 38.9023C137.723 38.6836 137.671 38.5234 137.567 38.4219C137.463 38.3203 137.278 38.2292 137.012 38.1484L135.95 37.8164C135.619 37.7122 135.326 37.5742 135.071 37.4023C134.818 37.2305 134.692 36.9753 134.692 36.6367ZM141.598 36.0234C141.103 36.0234 140.719 36.1836 140.446 36.5039C140.175 36.8242 140.04 37.2318 140.04 37.7266C140.04 38.224 140.175 38.6328 140.446 38.9531C140.719 39.2734 141.103 39.4336 141.598 39.4336C142.08 39.4336 142.452 39.2708 142.715 38.9453C142.978 38.6198 143.11 38.2135 143.11 37.7266C143.11 37.2396 142.978 36.8346 142.715 36.5117C142.452 36.1862 142.08 36.0234 141.598 36.0234ZM141.598 40.0977C140.877 40.0977 140.292 39.8828 139.844 39.4531C139.396 39.0234 139.172 38.4479 139.172 37.7266C139.172 37.0026 139.396 36.4271 139.844 36C140.295 35.5729 140.879 35.3594 141.598 35.3594C142.307 35.3594 142.879 35.5768 143.317 36.0117C143.754 36.444 143.973 37.0156 143.973 37.7266C143.973 38.4375 143.754 39.0104 143.317 39.4453C142.879 39.8802 142.307 40.0977 141.598 40.0977ZM146.27 33.2227C146.325 33.2227 146.373 33.2409 146.415 33.2773C146.456 33.3112 146.477 33.3568 146.477 33.4141V39.3125H147.43C147.529 39.3125 147.601 39.349 147.645 39.4219C147.689 39.4922 147.712 39.5755 147.712 39.6719C147.712 39.7578 147.685 39.8346 147.633 39.9023C147.584 39.9674 147.514 40 147.422 40H144.813C144.704 40 144.623 39.9688 144.571 39.9062C144.519 39.8438 144.493 39.763 144.493 39.6641C144.493 39.5677 144.516 39.4857 144.563 39.418C144.613 39.3477 144.688 39.3125 144.79 39.3125H145.676V34.0625L144.758 34.3047C144.748 34.3047 144.741 34.306 144.739 34.3086C144.736 34.3112 144.73 34.3125 144.719 34.3125C144.639 34.3125 144.566 34.2773 144.501 34.207C144.438 34.1341 144.407 34.0573 144.407 33.9766C144.407 33.8646 144.435 33.7917 144.493 33.7578C144.553 33.7214 144.626 33.6901 144.712 33.6641L146.215 33.2305C146.221 33.2279 146.227 33.2266 146.235 33.2266C146.245 33.224 146.257 33.2227 146.27 33.2227ZM150.196 35.9023C150.196 35.9987 150.174 36.0833 150.129 36.1562C150.088 36.2292 150.017 36.2656 149.919 36.2656H149.469L150.715 38.9375L151.86 36.2656H151.485C151.386 36.2656 151.314 36.2292 151.27 36.1562C151.226 36.0833 151.204 35.9987 151.204 35.9023C151.204 35.8164 151.228 35.7409 151.278 35.6758C151.33 35.6081 151.402 35.5742 151.493 35.5742H153.044C153.156 35.5742 153.236 35.6055 153.286 35.668C153.338 35.7305 153.364 35.8112 153.364 35.9102C153.364 36.0065 153.339 36.0898 153.29 36.1602C153.243 36.2305 153.169 36.2656 153.067 36.2656H152.555L151.087 39.543C151.029 39.6523 150.967 39.7565 150.899 39.8555C150.834 39.9518 150.739 40 150.614 40C150.502 40 150.412 39.9492 150.344 39.8477C150.279 39.7461 150.217 39.6341 150.157 39.5117L148.54 36.2656H148.079C147.98 36.2656 147.906 36.2305 147.856 36.1602C147.807 36.0898 147.782 36.0065 147.782 35.9102C147.782 35.8112 147.808 35.7305 147.86 35.668C147.912 35.6055 147.993 35.5742 148.102 35.5742H149.911C150.002 35.5742 150.072 35.6081 150.122 35.6758C150.171 35.7409 150.196 35.8164 150.196 35.9023ZM154.434 37.8164C154.434 38.3268 154.593 38.7161 154.911 38.9844C155.231 39.25 155.624 39.3828 156.09 39.3828C156.421 39.3828 156.68 39.3216 156.868 39.1992C157.058 39.0742 157.239 38.9323 157.411 38.7734C157.45 38.7396 157.491 38.7148 157.536 38.6992C157.58 38.681 157.624 38.6719 157.669 38.6719C157.773 38.6719 157.861 38.7044 157.934 38.7695C158.007 38.832 158.044 38.9167 158.044 39.0234C158.044 39.3568 157.801 39.6198 157.317 39.8125C156.835 40.0026 156.416 40.0977 156.059 40.0977C155.346 40.0977 154.757 39.8867 154.294 39.4648C153.833 39.0404 153.602 38.4701 153.602 37.7539C153.602 37.0456 153.814 36.4701 154.239 36.0273C154.663 35.582 155.239 35.3594 155.965 35.3594C156.486 35.3594 156.962 35.5404 157.391 35.9023C157.821 36.2617 158.036 36.7266 158.036 37.2969C158.036 37.4922 157.975 37.6094 157.852 37.6484C157.732 37.6875 157.58 37.7161 157.395 37.7344L154.434 37.8164ZM157.055 37.0469C157.055 36.6745 156.941 36.4115 156.712 36.2578C156.485 36.1016 156.236 36.0234 155.965 36.0234C155.507 36.0234 155.142 36.1367 154.872 36.3633C154.603 36.5898 154.452 36.8906 154.419 37.2656L156.766 37.2148C156.839 37.2122 156.906 37.1992 156.965 37.1758C157.025 37.1497 157.055 37.1068 157.055 37.0469Z" fill="#1ED900"/>
</svg>
