<svg width="200" height="100" viewBox="0 0 200 100" fill="none" xmlns="http://www.w3.org/2000/svg">
<rect width="200" height="100" fill="#010101"/>
<path d="M95.688 57.744V52.704C95.688 51.04 94.728 50.208 92.808 50.208H89.544C87.624 50.208 86.664 51.04 86.664 52.704L86.616 57.744C86.616 59.344 86.056 60.144 84.936 60.144C83.816 60.144 83.256 59.408 83.256 57.936V41.52C83.256 40.016 83.816 39.264 84.936 39.264C86.088 39.264 86.664 40.064 86.664 41.664V45.84C86.664 47.536 87.624 48.384 89.544 48.384H92.904C94.76 48.384 95.688 47.536 95.688 45.84V41.664C95.688 40.064 96.248 39.264 97.368 39.264C98.52 39.264 99.096 40.016 99.096 41.52V57.936C99.096 59.408 98.52 60.144 97.368 60.144C96.248 60.144 95.688 59.344 95.688 57.744ZM105.995 60.096C104.907 60.096 104.363 59.312 104.363 57.744L104.315 41.376C104.315 39.872 104.859 39.12 105.947 39.12C107.067 39.12 107.627 39.888 107.627 41.424L107.675 57.744C107.675 59.312 107.115 60.096 105.995 60.096ZM115.092 53.424C113.812 53.424 113.172 52.672 113.172 51.168V41.28C113.172 39.712 113.812 38.928 115.092 38.928C116.34 38.928 116.964 39.712 116.964 41.28L117.012 51.12C117.012 52.656 116.372 53.424 115.092 53.424ZM115.092 60.192C113.812 60.192 113.172 59.696 113.172 58.704C113.172 57.616 113.812 57.072 115.092 57.072C116.404 57.072 117.06 57.616 117.06 58.704C117.06 59.696 116.404 60.192 115.092 60.192Z" fill="#FCF8F8"/>
</svg>
